<svg width="24" height="24" viewBox="0 0 24 24" fill="none" xmlns="http://www.w3.org/2000/svg">
<path d="M9.20962 16.8846H14.6019C14.8219 16.8846 14.998 16.8416 15.1303 16.7557C15.2627 16.6698 15.3827 16.5378 15.4904 16.3596L17.3211 12.125C17.3609 12.0224 17.3932 11.901 17.4182 11.7606C17.4432 11.6202 17.4557 11.5051 17.4557 11.4154V10.8798C17.4557 10.6648 17.4051 10.5125 17.3038 10.4229C17.2025 10.3333 17.0474 10.2885 16.8384 10.2885H11.7519L12.4207 7.14891C12.4364 7.0124 12.4259 6.87045 12.3894 6.72306C12.3529 6.57566 12.2795 6.45196 12.1692 6.35196L11.8057 5.99814L8.1421 9.95386C8.082 10.0643 8.02246 10.1779 7.9635 10.2946C7.90451 10.4113 7.87502 10.5381 7.87502 10.675V15.575C7.87502 15.9138 8.01097 16.2168 8.28287 16.4839C8.55476 16.751 8.86367 16.8846 9.20962 16.8846ZM11.9902 21.9C10.6335 21.9 9.35501 21.638 8.15475 21.114C6.95448 20.59 5.90741 19.8812 5.01352 18.9877C4.11962 18.0942 3.41056 17.0465 2.88635 15.8446C2.36213 14.6426 2.10002 13.3617 2.10002 12.0017C2.10002 10.6332 2.36251 9.34695 2.8875 8.14286C3.41248 6.93876 4.12411 5.8875 5.0224 4.98906C5.9207 4.09065 6.9678 3.38454 8.1637 2.87074C9.35961 2.35694 10.6341 2.10004 11.9872 2.10004C13.3567 2.10004 14.646 2.35683 15.8551 2.87041C17.0643 3.38398 18.1163 4.0899 19.0111 4.98816C19.9059 5.88643 20.6111 6.93872 21.1266 8.14504C21.6422 9.35137 21.9 10.6403 21.9 12.0119C21.9 13.3732 21.6432 14.6498 21.1296 15.8417C20.616 17.0336 19.9102 18.0787 19.0122 18.977C18.1141 19.8753 17.0621 20.587 15.8561 21.1122C14.6501 21.6374 13.3614 21.9 11.9902 21.9Z" fill="#4F7752"/>
</svg>
